# xmcd CD database file
#
# Track frame offsets:
#	150
#	26955
#	50762
#	92943
#	133748
#	159789
#
# Disc length: 2486 seconds
#
# Revision: 0
# Processed by: cddbd v1.4PL0 Copyright (c) Steve Scherf et al.
# Submitted via: CDex 1.51
#
DISCID=4e09b406
DTITLE=John Lee Hooker - Born in Mississippi, raised up in Tennessee
DYEAR=1973
DGENRE=Country
TTITLE0=Born in Mississippi, raised up in Tennessee
TTITLE1=How many more years you gonna dog me 'round?
TTITLE2=Going down
TTITLE3=Younger stud
TTITLE4=King of the world
TTITLE5=Tell me you love me
EXTD=YEAR: 1973
EXTT0=
EXTT1=
EXTT2=
EXTT3=
EXTT4=
EXTT5=
PLAYORDER=
